Patient4_TMGait_0pt4_03_right_19_EMG.mot
version=1
nRows=19
nColumns=33
inDegrees=no
endheader
time	1LAddLong	2LGlutMax	3LGlutMed	4LIliopsoas	5LSemiMemb	6LBicFemLong	7LRecFem	8LVastMed	9LVastLat	10LGasMed	11LTibAnt	12lTibPost	13LPeroneusLong	14LSol	15LExtDigLong	16LFlexDigLong	17RAddLong	18RGlutMax	19RGlutMed	20RIliopsoas	21RSemiMemb	22RBicFemLong	23RRecFem	24RVastMed	25RVastLat	26RGasMed	27RTibAnt	28RTibPost	29RPeroneusLong	30RSol	31RExtDigLong	32RFlexDigLong
24.15	0.006409	0.13992	0.031738	-0.013123	0.005188	0.068817	0.039978	0.002747	-0.089569	0.088501	0.018616	0.03006	0.16541	-0.22186	0.00824	0.008392	0.001526	-0.077972	0.31082	-0.064392	-0.015106	-0.10773	0.061035	-0.066071	0.031738	-0.002136	0.35858	0.001373	0.026703	-0.008545	-0.003967	0.015106
24.151	-0.000763	0.10452	0.014191	0.003662	-0.000763	0.028076	0.020294	0.004425	-0.029907	0.10025	0.019836	-0.006561	0.16281	0.045471	0.022125	0.019989	-0.002441	-0.092163	0.15747	-0.064545	-0.005798	-0.10895	0.053253	-0.04425	0.019073	-0.010376	0.40863	0	0.019226	0.039978	-0.002289	0.009308
24.152	0.007324	0.097198	-0.033417	-0.013733	0.00351	-0.009613	0.016785	0.001373	-0.018158	0.1207	0.026855	-0.041199	-0.19134	0.2356	0.004272	0.014496	0.003967	-0.063477	0.36072	-0.011749	0.000763	-0.11581	0.040436	-0.04715	0.031281	-0.016785	0.36209	0.005188	-0.14938	0.00351	-0.003662	0.007172
24.153	0.015411	0.11292	-0.086823	-0.010223	0.00351	0.033722	0.018616	0.002136	0.002747	0.063171	-0.007477	-0.043793	-0.2002	0.16068	-0.005646	0.015564	0.004425	-0.086517	0.10132	-0.010681	-0.013275	-0.10956	0.024719	-0.046234	0.024872	-0.019989	0.13626	0.001831	-0.13306	0.073547	-0.002747	0.00473
24.154	0.02121	0.17899	-0.11017	-0.005646	0.013733	0.004272	0.021362	0.00351	0.016785	0.056915	-0.008087	-0.035706	0.032196	-0.085449	-0.014343	0.009155	-0.004883	-0.10803	0.24414	-0.042419	-0.018005	-0.13504	0.057526	-0.035248	0.041809	-0.012817	-0.23086	0.001678	0.099335	-0.000153	-0.003815	0.006866
24.155	0.012665	0.20157	0.035095	0.002289	0.003357	-0.019073	0.019379	0.002289	0.014038	0.027618	0.000153	-0.025024	0.14999	-0.21835	-0.01236	0.003967	-0.005188	-0.052795	0.047913	-0.012054	-0.010071	-0.12375	0.002747	-0.025024	0.024719	-0.010376	-0.63538	0.002899	0.079651	0.009003	-0.005951	0.004883
24.156	0.003052	0.19363	0.016022	0.002747	0.011139	-0.029449	0.06073	0.005188	-0.011902	0.027008	-0.018158	-0.014801	0.054016	-0.20691	0.00351	0.005341	0.00351	-0.11398	-0.23743	0.039825	-0.010376	-0.12985	0.016327	-0.035248	0.026245	-0.002136	-0.47669	0.002136	0.11185	0.017395	-0.000916	-0.000458
24.157	0.007629	0.19012	0.03006	-0.016174	0.00061	-0.009918	0.02243	0.003204	0.018768	0.042877	-0.039978	-0.011292	-0.18738	-0.083618	0.01297	0.010681	0.000916	-0.095673	-0.092621	-0.016785	-0.026398	-0.14679	0.018921	-0.044403	0.016632	-0.00473	-0.12665	-0.000153	0.063782	-0.00412	-0.002899	0.006714
24.158	0.009766	0.23789	0.16098	-0.011444	0.004425	-0.017548	-0.016174	0.007019	0.02121	0.044403	-0.004425	-0.007629	0.27985	0.24414	0.001678	-0.007019	-0.001678	-0.029602	0.21393	-0.070038	-0.025635	-0.16663	0.020905	-0.083771	0.018463	-0.011444	0.25818	-0.002899	-0.088348	0.001373	-0.003357	0.005951
24.159	0.007172	0.26657	0.14877	0.010529	0.007019	-0.023041	-0.050964	0.023193	0.065918	0.015259	-0.006256	-0.003662	0.66361	0.17242	-0.00412	0.010834	0.005646	0.012054	0.2536	-0.083313	-0.023651	-0.17273	-0.001373	-0.059814	0.018158	-0.005798	0.22797	0.011139	-0.14847	-0.012665	-0.003204	0.009918
24.16	0.006256	0.24445	0.14038	0.017548	0.009918	-0.038147	-0.094299	0.028534	0.063782	-0.020905	-0.020752	-0.022736	0.22492	0.097961	0.012512	0.016632	0.007782	0.0177	-0.19241	-0.013733	-0.014801	-0.18799	-0.047607	-0.061188	0.026703	-0.007782	0.2179	0.008392	-0.11337	-0.004272	-0.004883	0.005951
24.161	0.006866	0.14374	0.026398	-0.00885	0.009613	-0.02655	-0.1355	0.022278	0.17349	-0.012054	0.001984	-0.023651	-0.47195	-0.23895	0.011749	0.010681	0.00061	-0.073242	-0.3566	0.041046	-0.005646	-0.21088	-0.002899	-0.083008	0.032959	-0.010223	0.22278	0.009918	0.042114	-0.029144	-0.001678	0.002289
24.162	0.001984	0.12955	0.013733	0.015411	0.010986	-0.014801	-0.074615	0.001831	0.13596	-0.035095	-0.01358	-0.024719	0.20737	-0.30365	-0.006561	-0.00412	0.004272	-0.038452	0.16998	0.011902	-0.010681	-0.21545	0.016479	-0.050507	0.035706	-0.012207	-0.026245	0.010376	0.070038	-0.010223	-0.004883	0.002899
24.163	0.005493	0.16876	0.069885	0.006256	0.015411	0.016174	-0.014801	-0.009613	0.046387	-0.023804	-0.02655	-0.012665	0.52963	-0.18601	-0.099792	-0.020599	0.006714	-0.068054	0.42328	-0.075073	-0.009308	-0.2504	-0.0177	-0.08255	0.039978	-0.001678	-0.10193	0.008545	0.008698	-0.007019	-0.000305	0.002594
24.164	0.00824	0.13779	0.14877	0.018768	0.009613	0.11978	0.020447	-0.00824	0.06012	-0.045319	-0.009918	-0.026245	0.25406	0.007782	-0.021667	0.001221	0.003357	-0.055847	0.4866	-0.092773	0.000916	-0.26169	-0.029449	-0.02243	0.038757	-0.008545	0.2179	0.004578	-0.060425	-0.00351	-0.00061	-0.001984
24.165	0.005341	0.15381	0.065308	0.00824	0.005188	0.18463	0.067444	-0.008698	0.029755	-0.10834	0.001373	-0.020752	-0.34958	0.12329	0.12772	-0.005951	-0.010223	-0.088959	0.23193	-0.063477	-0.010376	-0.31815	-0.04364	-0.052643	0.033722	-0.018005	0.30136	0.007935	-0.10178	0.004883	-0.00412	-0.002899
24.166	-0.004578	0.046997	0.028076	0.003967	-0.014038	0.22964	0.11581	-0.001678	0.012512	-0.081482	0.021973	-0.014038	-0.88211	0.088959	0.062256	-0.001984	0.00473	-0.062714	0.12772	-0.027924	-0.006714	-0.33661	-0.063934	-0.041962	0.034943	-0.011292	0.38895	0.009155	-0.11704	-0.009003	-0.003662	-0.015717
24.167	0.000153	0.065308	-0.027924	0.004578	-0.012665	0.19257	0.087738	-0.007019	0.026398	-0.007629	0.019836	-0.019989	-0.47333	0.015869	-0.061035	-0.014496	-0.006866	-0.099182	-0.034027	0.070496	-0.006561	-0.39429	-0.028992	-0.061188	0.037384	-0.013123	0.29434	0.014038	-0.12817	-0.091248	-0.00061	-0.021973
24.168	-0.009918	0.071869	-0.009613	-0.001373	0.008087	0.15778	0.049744	-0.010681	0.031128	-0.012512	-0.004425	-0.015411	0.12375	-0.049591	-0.10376	-0.011139	-0.007172	-0.093689	-0.28915	0.08728	-0.002136	-0.45517	-0.05127	-0.080566	0.042877	-0.010834	0.080566	0.009155	-0.061188	-0.094452	-0.000916	-0.018921
